<svg xmlns="http://www.w3.org/2000/svg" viewBox="0 0 30 30" class=" uk-svg" width="30" height="30">
    <path class="tm-stroke-svg" d="M18.8,21.4h-5.7"></path>
    <path class="tm-stroke-svg" d="M7.4,21.4H5.2c-0.2,0-0.4-0.2-0.4-0.4L6,6.4c0-0.2,0.2-0.3,0.4-0.3h14.2c0.2,0,0.4,0.2,0.4,0.4l-0.4,4.8h2.2 c2.8,0,5,2.4,4.7,5.1l-0.4,4.7c0,0.2-0.2,0.3-0.4,0.3h-2.3"></path>
    <path class="tm-stroke-svg" d="M5.3,15.6h14.2c0.3,0,0.6-0.3,0.7-0.6l0.3-3.8"></path>
    <ellipse class="tm-stroke-svg" cx="21.6" cy="21.3" rx="2.6" ry="2.6"></ellipse>
    <ellipse class="tm-stroke-svg" cx="10.3" cy="21.3" rx="2.6" ry="2.6"></ellipse>
    <line class="tm-stroke-svg" x1="2.5" y1="8.6" x2="13.9" y2="8.6"></line>
    <line class="tm-stroke-svg" x1="16.1" y1="10.9" x2="9.6" y2="10.9"></line>
</svg>
